/* XPM */

static const char *shynur_letter_xpm[] = {
    "14 10 2 2",  // 宽px, 高px, 颜色数, chars/px.

    "## c opaque",
    "   c None",

    "############################",
    "##  ##                ##  ##",
    "##    ##            ##    ##",
    "##      ##        ##      ##",
    "##        ##    ##        ##",
    "##      ##  ####  ##      ##",
    "##    ##            ##    ##",
    "##  ##                ##  ##",
    "####                    ####",
    "############################",
};

// Local Variables:
// coding: utf-8-unix
// End:
